HIERARCHY
ROOT Hips
{
	OFFSET	0.00	0.00	0.00
	CHANNELS 6 Xposition Yposition Zposition Zrotation Xrotation Yrotation
	JOINT LeftUpLeg
	{
		OFFSET	 0.126116	-0.014019	-0.065224
		CHANNELS 3 Zrotation Xrotation Yrotation
		JOINT LeftLeg
		{
			OFFSET	 0.000000	 0.000000	 0.569914
			CHANNELS 3 Zrotation Xrotation Yrotation
			JOINT LeftFoot
			{
				OFFSET	 0.000000	 0.000000	 0.544423
				CHANNELS 3 Zrotation Xrotation Yrotation
				JOINT LeftToeBase
				{
					OFFSET	 0.000000	 0.000000	 0.207117
					CHANNELS 3 Zrotation Xrotation Yrotation
					End Site
					{
						OFFSET	 0.000000	 0.000000	 0.207117
					}
				}
			}
		}
	}
	JOINT RightUpLeg
	{
		OFFSET	-0.124023	-0.008373	-0.065224
		CHANNELS 3 Zrotation Xrotation Yrotation
		JOINT RightLeg
		{
			OFFSET	 0.000000	 0.000000	 0.570047
			CHANNELS 3 Zrotation Xrotation Yrotation
			JOINT RightFoot
			{
				OFFSET	 0.000000	 0.000000	 0.544354
				CHANNELS 3 Zrotation Xrotation Yrotation
				JOINT RightToeBase
				{
					OFFSET	 0.000000	 0.000000	 0.207540
					CHANNELS 3 Zrotation Xrotation Yrotation
					End Site
					{
						OFFSET	 0.000000	 0.000000	 0.207540
					}
				}
			}
		}
	}
	JOINT Spine
	{
		OFFSET	 0.000184	-0.007763	 0.117403
		CHANNELS 3 Zrotation Xrotation Yrotation
		JOINT Spine1
		{
			OFFSET	 0.000000	 0.000000	 0.137269
			CHANNELS 3 Zrotation Xrotation Yrotation
			JOINT Spine2
			{
				OFFSET	 0.000000	 0.000000	 0.156879
				CHANNELS 3 Zrotation Xrotation Yrotation
				JOINT LeftShoulder
				{
					OFFSET	 0.080501	-0.002496	 0.160144
					CHANNELS 3 Zrotation Xrotation Yrotation
					JOINT LeftArm
					{
						OFFSET	 0.000000	 0.000000	 0.164363
						CHANNELS 3 Zrotation Xrotation Yrotation
						JOINT LeftForeArm
						{
							OFFSET	 0.000000	 0.000000	 0.364576
							CHANNELS 3 Zrotation Xrotation Yrotation
							JOINT LeftHand
							{
								OFFSET	 0.000000	 0.000000	 0.360812
								CHANNELS 3 Zrotation Xrotation Yrotation
								JOINT LeftHandIndex1
								{
									OFFSET	 0.000000	 0.000000	 0.086006
									CHANNELS 3 Zrotation Xrotation Yrotation
									JOINT LeftHandIndex2
									{
										OFFSET	 0.000000	 0.000000	 0.047236
										CHANNELS 3 Zrotation Xrotation Yrotation
										JOINT LeftHandIndex3
										{
											OFFSET	-0.004284	-0.000551	 0.038166
											CHANNELS 3 Zrotation Xrotation Yrotation
											End Site
											{
												OFFSET	-0.004284	-0.000551	 0.038166
											}
										}
									}
								}
							}
						}
					}
				}
				JOINT Neck
				{
					OFFSET	 0.000000	 0.000000	 0.176489
					CHANNELS 3 Zrotation Xrotation Yrotation
					JOINT Head
					{
						OFFSET	 0.000000	-0.001747	 0.077940
						CHANNELS 3 Zrotation Xrotation Yrotation
						End Site
						{
							OFFSET	 0.000000	-0.001747	 0.077940
						}
					}
				}
				JOINT RightShoulder
				{
					OFFSET	-0.080363	 0.000306	 0.159706
					CHANNELS 3 Zrotation Xrotation Yrotation
					JOINT RightArm
					{
						OFFSET	 0.000000	 0.000000	 0.164196
						CHANNELS 3 Zrotation Xrotation Yrotation
						JOINT RightForeArm
						{
							OFFSET	 0.000000	 0.000000	 0.365611
							CHANNELS 3 Zrotation Xrotation Yrotation
							JOINT RightHand
							{
								OFFSET	 0.000000	 0.000000	 0.360648
								CHANNELS 3 Zrotation Xrotation Yrotation
								JOINT RightHandIndex1
								{
									OFFSET	 0.000000	 0.000000	 0.069977
									CHANNELS 3 Zrotation Xrotation Yrotation
									JOINT RightHandIndex2
									{
										OFFSET	 0.000000	 0.000000	 0.052305
										CHANNELS 3 Zrotation Xrotation Yrotation
										JOINT RightHandIndex3
										{
											OFFSET	 0.009002	-0.000782	 0.042196
											CHANNELS 3 Zrotation Xrotation Yrotation
											End Site
											{
												OFFSET	 0.009002	-0.000782	 0.042196
											}
										}
									}
								}
							}
						}
					}
				}
			}
		}
	}
}
MOTION
Frames:    6
Frame Time: 0.03333334
-0.211785	-4.441209	 0.982479	-8.744935	 0.416764	 0.139885	 4.120843	-1.740984	 179.845900	 3.148375	-11.594550	 1.749876	 4.354801	 71.406390	 1.230586	-2.385833	 28.452760	 0.000004	-4.121233	-2.153062	-179.879800	-3.140183	-11.963990	-1.790658	-4.386759	 71.428380	-1.219510	 2.384659	 28.388700	-0.000001	-0.004748	 2.704451	 0.089747	-0.000863	-1.797851	-0.000071	-0.001035	-2.157420	-0.000088	-96.855580	 86.735590	-170.910900	 12.091080	 1.915868	-6.709816	-4.245887	-0.921628	-0.251014	-17.038870	-10.961910	-4.405296	-3.812334	 37.924440	-2.927599	-2.450526	 36.184240	 0.754587	-1.378229	 35.397820	-2.634230	-0.000002	-3.783157	-0.089647	-0.001368	 1.263151	 0.000015	 104.097500	 88.275240	 160.879200	-12.297070	 2.928358	 8.184118	 4.452776	-0.477587	 0.392389	 17.521420	-12.036600	 8.813822	 6.437017	 35.671460	-0.771858	 2.830251	 35.756010	-7.813440	-2.350882	 35.473990	 5.254307
-0.209757	-4.427301	 0.983699	-8.953608	 8.051326	 1.777148	 4.513693	-22.277500	 174.131800	-1.723091	-40.460180	-0.262708	 0.030803	 84.780270	-0.569829	-2.385678	 28.486880	-0.000735	-2.458094	-23.160870	-178.765900	-0.094511	-41.247540	 0.038678	-0.388249	 85.682620	 0.678141	 2.407676	 17.638730	-0.219590	-0.118740	 9.117537	-0.451178	 0.345680	 6.913943	-2.389530	 0.619324	 4.565363	 0.016308	-115.637200	 89.393810	-153.571800	 55.904800	 59.443920	-77.999860	-3.646807	-4.266478	-21.140330	 5.108163	-12.849840	-5.472941	-3.812334	 37.924440	-2.927599	-2.450526	 36.184240	 0.754587	-1.378229	 35.397820	-2.634230	 0.449895	 2.565233	-0.603895	 0.729771	 7.560967	-0.219465	 94.719130	 86.897010	 171.564300	-53.398660	 69.898220	 71.819730	-3.215993	-12.962510	 26.032410	-22.020680	-13.735510	 9.854366	 6.437017	 35.671460	-0.771858	 2.830251	 35.756010	-7.813440	-2.350882	 35.473990	 5.254307
-0.208368	-4.425213	 0.980778	-9.022571	 8.039448	 1.833035	 4.527799	-23.028420	 174.053800	-1.802962	-41.504940	-0.327027	 0.261842	 85.097830	-0.855083	-2.385161	 28.603150	-0.003250	-2.420601	-23.727830	-178.725100	-0.057249	-42.127240	 0.110804	-0.764786	 85.947350	 1.131272	 2.407627	 18.046190	-0.211621	-0.101891	 9.333380	-0.512874	 0.349619	 6.809518	-2.424509	 0.594131	 4.410001	 0.016453	-114.911200	 89.359890	-154.226500	 55.235760	 58.237400	-77.480990	-3.598945	-3.997692	-22.036280	 4.054131	-12.921000	-5.483429	-3.812334	 37.924440	-2.927599	-2.450526	 36.184240	 0.754587	-1.378229	 35.397820	-2.634230	 0.421982	 2.271404	-0.568212	 0.712050	 7.553864	-0.307099	 94.745100	 86.879650	 171.493300	-52.885300	 68.931950	 71.826230	-3.289891	-13.026130	 26.813690	-21.505970	-13.817970	 9.862199	 6.437017	 35.671460	-0.771858	 2.830251	 35.756010	-7.813440	-2.350882	 35.473990	 5.254307
-0.206432	-4.421402	 0.976141	-9.163482	 8.123489	 1.856894	 4.669077	-24.059660	 174.008800	-1.936170	-43.032840	-0.358778	 0.607082	 85.533450	-1.202389	-2.384810	 28.681110	-0.004941	-2.390073	-24.767730	-178.624200	-0.077076	-43.530060	 0.156573	-1.263716	 86.302340	 1.661546	 2.407467	 18.577080	-0.201208	-0.082066	 9.707555	-0.547871	 0.341557	 6.632512	-2.440468	 0.551742	 4.173211	 0.016421	-113.653600	 89.297790	-155.361500	 53.986850	 57.198660	-76.945340	-3.037461	-4.187455	-23.420420	 4.062698	-13.045620	-5.492544	-3.812334	 37.924440	-2.927599	-2.450526	 36.184240	 0.754587	-1.378229	 35.397820	-2.634230	 0.383074	 1.843149	-0.544302	 0.671055	 7.525571	-0.243187	 94.803200	 86.846760	 171.342500	-51.892920	 67.693050	 71.732750	-3.298582	-13.256850	 28.083490	-20.955810	-13.975980	 9.861073	 6.437017	 35.671460	-0.771858	 2.830251	 35.756010	-7.813440	-2.350882	 35.473990	 5.254307
-0.203971	-4.415021	 0.969656	-9.355357	 8.359521	 1.789298	 4.750864	-25.627850	 174.018800	-2.147363	-45.088580	-0.482363	 0.731621	 86.107800	-1.402425	-2.383925	 28.873320	-0.009113	-2.284086	-26.483760	-178.493300	-0.128236	-45.513580	 0.239170	-1.575435	 86.766500	 2.019790	 2.406937	 19.505400	-0.182900	-0.093784	 10.243770	-0.518365	 0.324413	 6.324323	-2.421649	 0.553760	 3.795829	 0.018306	-112.489000	 89.221920	-156.363300	 52.357100	 56.215990	-76.554600	-3.336550	-4.233619	-25.579740	 3.515326	-13.227720	-5.504559	-3.812334	 37.924440	-2.927599	-2.450526	 36.184240	 0.754587	-1.378229	 35.397820	-2.634230	 0.384711	 1.254592	-0.561753	 0.675065	 7.390739	-0.043165	 94.868010	 86.766270	 171.101900	-50.613770	 66.356160	 72.051390	-3.011453	-13.601420	 29.695290	-20.409200	-14.177340	 9.878183	 6.437017	 35.671460	-0.771858	 2.830251	 35.756010	-7.813440	-2.350882	 35.473990	 5.254307
-0.201088	-4.406526	 0.962061	-9.608791	 8.748064	 1.674610	 4.813675	-27.698780	 174.100900	-2.454827	-47.547190	-0.691623	 1.310296	 86.793740	-2.122857	-2.382667	 29.141570	-0.014961	-2.187254	-28.593560	-178.418700	-0.134087	-47.949650	 0.355557	-2.479078	 87.320070	 2.992751	 2.406086	 20.442350	-0.164312	-0.079660	 11.016040	-0.466643	 0.344444	 5.882374	-2.383729	 0.603271	 3.246054	 0.022840	-112.034500	 89.145220	-156.573600	 50.556390	 55.374830	-76.177650	-3.843555	-4.311483	-28.174770	 3.016318	-13.448540	-5.515319	-3.812334	 37.924440	-2.927599	-2.450526	 36.184240	 0.754587	-1.378229	 35.397820	-2.634230	 0.445221	 0.499557	-0.636092	 0.707106	 7.090324	 0.323784	 94.899650	 86.623790	 170.810600	-48.975850	 65.123660	 72.316360	-2.453847	-13.957130	 31.409970	-19.877590	-14.427260	 9.880832	 6.437017	 35.671460	-0.771858	 2.830251	 35.756010	-7.813440	-2.350882	 35.473990	 5.254307
